<svg xmlns="http://www.w3.org/2000/svg" xmlns:xlink="http://www.w3.org/1999/xlink" viewBox="0 0 78.96 78.96"><defs><style>.cls-1{fill:#373737;}.cls-2{fill:none;stroke-miterlimit:10;stroke:url(#Áåçûìÿííûé_ãðàäèåíò_200);}</style><linearGradient id="Áåçûìÿííûé_ãðàäèåíò_200" y1="39.48" x2="78.96" y2="39.48" gradientUnits="userSpaceOnUse"><stop offset="0" stop-color="#ffbf17"/><stop offset="0.22" stop-color="#f6ae1a"/><stop offset="0.66" stop-color="#df8122"/><stop offset="1" stop-color="#ca5a29"/></linearGradient></defs><g id="Layer_2" data-name="Layer 2"><g id="backrgound"><path class="cls-1" d="M11.09,54.87a2.23,2.23,0,0,0,1.5.81V67.74a3,3,0,0,0,3,3h3a3,3,0,0,0,3-3V62.8l.64-5.07h.1a2.24,2.24,0,0,0,2.24-2.23l0-8.29c0-.53,0-1,.06-1.58a47.93,47.93,0,0,1,2.89,14.12,4,4,0,0,0,2.72,3.59l8.43,2.81a6,6,0,0,0,3.8,0l8.43-2.81a4,4,0,0,0,2.72-3.59,47.85,47.85,0,0,1,2.89-14.12c0,.53.06,1,.06,1.58l0,8.29a2.24,2.24,0,0,0,2.24,2.23H59l.64,5.07v4.94a3,3,0,0,0,3,3h3a3,3,0,0,0,3-3V55.68a2.23,2.23,0,0,0,1.5-.81,2.19,2.19,0,0,0,.47-1.74L69.1,43.71a3.11,3.11,0,0,0,.87-.79,3.07,3.07,0,0,0,.59-2.27l-.69-5a3.14,3.14,0,0,0,.48-3.16L68,27a3,3,0,0,0,.72-1.43,2.92,2.92,0,0,0-.51-2.31c-1.49-2-4.49-5.54-8.4-7.18l.37-1.63a3.08,3.08,0,0,0-6-1.37l-1.78,7.57a31.8,31.8,0,0,1-11.76,2.06,35,35,0,0,1-7.78-.84,1,1,0,1,0-.44,2,37.73,37.73,0,0,0,8.22.88A35,35,0,0,0,51.8,23L51,26.35l-9.23,4.14a3,3,0,0,1-2.37,0l-9.24-4.14L27.05,13.11a3.07,3.07,0,0,0-6,1.38l.37,1.62c-3.92,1.64-6.92,5.15-8.41,7.18a2.92,2.92,0,0,0-.51,2.31A3,3,0,0,0,13.23,27l-2.42,5.51a3.13,3.13,0,0,0,.51,3.13l-.7,5a3.07,3.07,0,0,0,.59,2.27,3.11,3.11,0,0,0,.87.79l-1.46,9.42A2.19,2.19,0,0,0,11.09,54.87Zm8.62,6.87H14.59V55.86a25.63,25.63,0,0,1,5.7,1.23Zm-.12,6a1,1,0,0,1-1,1h-3a1,1,0,0,1-1-1v-4h5Zm3-20.53,0,8.3a.22.22,0,0,1-.1.19.25.25,0,0,1-.26,0,28.31,28.31,0,0,0-9.39-2,.22.22,0,0,1-.18-.09.26.26,0,0,1-.05-.18L14,44.21l4.44.52h.12a1,1,0,0,0,.9-.55l1.85-3.7,2-1L23,42.15A35.66,35.66,0,0,0,22.59,47.21Zm-9.43-10.3,6.1,3.25L18,42.66l-4.5-.53a1.07,1.07,0,0,1-.91-1.2Zm18.27.86,7.17,3.51a4.53,4.53,0,0,0,4,0l7.17-3.51,6,.85.41,2.84a47.78,47.78,0,0,0-2.34,6.12L41.06,54.36a1,1,0,0,1-.94,0L27.41,47.58a47.78,47.78,0,0,0-2.34-6.12l.41-2.84ZM51.64,59.66a2,2,0,0,1-1.36,1.79l-8.42,2.81a4,4,0,0,1-2.54,0L30.9,61.45a2,2,0,0,1-1.36-1.79,47.87,47.87,0,0,0-1.4-9.42l11,5.88a3,3,0,0,0,2.82,0l11-5.88A47.75,47.75,0,0,0,51.64,59.66Zm15,2.08H61.47l-.58-4.65a25.63,25.63,0,0,1,5.7-1.23Zm0,6a1,1,0,0,1-1,1h-3a1,1,0,0,1-1-1v-4h5Zm2-14.13a.22.22,0,0,1-.18.09,28.31,28.31,0,0,0-9.39,2,.25.25,0,0,1-.26,0,.22.22,0,0,1-.1-.19l0-8.3a35.66,35.66,0,0,0-.36-5.06l-.38-2.66,2,1,1.85,3.7a1,1,0,0,0,.9.55h.12l4.44-.52,1.44,9.22A.26.26,0,0,1,68.54,53.61ZM68,36.91l.56,4a1.07,1.07,0,0,1-.88,1.2l-4.53.53-1.25-2.5Zm0-2.28-7.48,4L58,37.32a30,30,0,0,1,8.34-9.06l2.2,5A1.09,1.09,0,0,1,68.05,34.63Zm-12-21.06a1.08,1.08,0,0,1,.49-.67,1.12,1.12,0,0,1,.82-.13A1.07,1.07,0,0,1,58.17,14l-.56,2.48a1,1,0,0,0,.66,1.17c3.81,1.27,6.82,4.79,8.27,6.78a1,1,0,0,1,.17.75,1.1,1.1,0,0,1-.49.7A31.38,31.38,0,0,0,56,36.65l-5.23-.74ZM38.6,32.32a4.94,4.94,0,0,0,2,.42,4.87,4.87,0,0,0,2-.43l7.84-3.51-1.71,7.25-7,3.43a2.48,2.48,0,0,1-2.22,0l-7-3.43L30.75,28.8Zm-24-7.85c1.45-2,4.46-5.51,8.27-6.78a1,1,0,0,0,.66-1.17L23,14.05a1.07,1.07,0,0,1,.79-1.28,1.09,1.09,0,0,1,.26,0,1,1,0,0,1,.55.16,1.08,1.08,0,0,1,.49.67l5.27,22.34-5.23.74A31.38,31.38,0,0,0,15,25.92a1.1,1.1,0,0,1-.49-.7A1,1,0,0,1,14.64,24.47Zm-2,8.84,2.21-5.05a30,30,0,0,1,8.34,9.06l-2.6,1.3-7.46-4A1.08,1.08,0,0,1,12.66,33.31Z"/><rect class="cls-2" x="0.5" y="0.5" width="77.96" height="77.96"/></g></g></svg>