<svg xmlns="http://www.w3.org/2000/svg" xmlns:xlink="http://www.w3.org/1999/xlink" viewBox="0 0 78.96 78.96"><defs><style>.cls-1{fill:none;stroke-miterlimit:10;stroke:url(#Áåçûìÿííûé_ãðàäèåíò_200);}.cls-2{fill:#373737;}</style><linearGradient id="Áåçûìÿííûé_ãðàäèåíò_200" y1="39.48" x2="78.96" y2="39.48" gradientUnits="userSpaceOnUse"><stop offset="0" stop-color="#ffbf17"/><stop offset="0.22" stop-color="#f6ae1a"/><stop offset="0.66" stop-color="#df8122"/><stop offset="1" stop-color="#ca5a29"/></linearGradient></defs><g id="Layer_2" data-name="Layer 2"><g id="backrgound"><rect class="cls-1" x="0.5" y="0.5" width="77.96" height="77.96"/><path class="cls-2" d="M58.64,49.89a19,19,0,0,1-19-19V20.75a4,4,0,0,0,3-3.86v-5a4,4,0,0,0-4-4h-21a4,4,0,0,0-4,4v5a4,4,0,0,0,3,3.86v5.14a1,1,0,0,0,2,0v-5h19v10a21,21,0,0,0,21,21,7,7,0,0,1,7,7v1.33c-1.38.5-5.39,1.67-13,1.67A33.11,33.11,0,0,1,41.5,60.15a21.45,21.45,0,0,0-6.86-1.26,18.27,18.27,0,0,0-4.69.49,20.67,20.67,0,0,1-5.31.51c-4.22,0-6.29-1-7-1.49,0-3.55.11-6.67.3-9.51h3.79a5.55,5.55,0,0,0-.09,1,6,6,0,1,0,10-4.46V35.89a7,7,0,0,0-7-7h-15a2,2,0,0,0-2,2v3a3,3,0,0,0,2,2.83v3.17a3,3,0,0,0,2,2.83v3.17a3,3,0,0,0,3,3h1.3c-.2,3-.3,6.26-.3,10v4.92a3,3,0,0,0,1.68,2.7,16.51,16.51,0,0,0,7.32,1.38H30a2.65,2.65,0,0,0,2.65-2.64.29.29,0,0,1,.08-.2.28.28,0,0,1,.2-.06,12.07,12.07,0,0,1,4.76,1.61A8.08,8.08,0,0,0,42,67.89H52.64c7.59,0,10.72-.69,13-1.44a3,3,0,0,0,2-2.82V58.89A9,9,0,0,0,58.64,49.89Zm-43-33v-5a2,2,0,0,1,2-2h21a2,2,0,0,1,2,2v5a2,2,0,0,1-2,2h-21A2,2,0,0,1,15.64,16.89Zm12,37a4,4,0,1,1,4-4A4,4,0,0,1,27.64,53.89Zm-14-8v-3h8a1,1,0,0,0,0-2h-9a1,1,0,0,1-1-1v-3h8a1,1,0,0,0,0-2h-9a1,1,0,0,1-1-1v-3h15a5,5,0,0,1,5,5v8.35a6,6,0,0,0-7.19,2.65H14.64A1,1,0,0,1,13.64,45.89ZM65,64.55c-1.41.47-4,1.34-12.34,1.34H42a6.06,6.06,0,0,1-3.26-1A13.88,13.88,0,0,0,33.17,63a2.25,2.25,0,0,0-1.77.54,2.29,2.29,0,0,0-.76,1.7.65.65,0,0,1-.65.64H24.64a14.71,14.71,0,0,1-6.44-1.17,1,1,0,0,1-.56-.91V60.66a17.08,17.08,0,0,0,7,1.23,22,22,0,0,0,5.74-.56,16.81,16.81,0,0,1,4.26-.44,19.53,19.53,0,0,1,6.27,1.17,34.87,34.87,0,0,0,11.73,1.83,44.32,44.32,0,0,0,13-1.56v1.3A1,1,0,0,1,65,64.55Z"/></g></g></svg>