<svg xmlns="http://www.w3.org/2000/svg" xmlns:xlink="http://www.w3.org/1999/xlink" viewBox="0 0 78.96 78.96"><defs><style>.cls-1{fill:#373737;}.cls-2{fill:none;stroke-miterlimit:10;stroke:url(#Áåçûìÿííûé_ãðàäèåíò_200);}</style><linearGradient id="Áåçûìÿííûé_ãðàäèåíò_200" y1="39.48" x2="78.96" y2="39.48" gradientUnits="userSpaceOnUse"><stop offset="0" stop-color="#ffbf17"/><stop offset="0.22" stop-color="#f6ae1a"/><stop offset="0.66" stop-color="#df8122"/><stop offset="1" stop-color="#ca5a29"/></linearGradient></defs><g id="Layer_2" data-name="Layer 2"><g id="backrgound"><path class="cls-1" d="M15.48,65.48a4,4,0,0,0,4,4h10a4,4,0,0,0,3.86-3H45.62a4,4,0,0,0,3.86,3h10a4,4,0,0,0,4-4V37A24.44,24.44,0,0,0,45.05,13.17l0-.2a3,3,0,0,0-3-3.49H36.84a3,3,0,0,0-3,3.49l1.34,8a3,3,0,0,0,3,2.51h2.61a3,3,0,0,0,3-2.51l1-5.82A22.44,22.44,0,0,1,61.48,37V65.48a2,2,0,0,1-2,2h-10a2,2,0,0,1-2-2V50.13l7.22-3.2a3,3,0,0,0,1.78-2.75V39a3,3,0,0,0-1.11-2.33,3,3,0,0,0-2.52-.6L43,38.14a3,3,0,0,0-2.36,3.12l.82,13.19A2,2,0,0,1,41,55.76l-1.14,1.53a.49.49,0,0,1-.4.19.47.47,0,0,1-.39-.19L38,55.77a2,2,0,0,1-.4-1.33l.82-13.18A3,3,0,0,0,36,38.14L26.11,36A3,3,0,0,0,22.48,39v5.23a3,3,0,0,0,1.79,2.75l7.21,3.2V65.48a2,2,0,0,1-2,2h-10a2,2,0,0,1-2-2v-29A22.09,22.09,0,0,1,31.83,15.85a1,1,0,1,0-.7-1.87,24.09,24.09,0,0,0-15.65,22.5ZM41.77,20.65a1,1,0,0,1-1,.83H38.18a1,1,0,0,1-1-.83l-1.33-8a1,1,0,0,1,1-1.17h5.28a1,1,0,0,1,.76.36,1,1,0,0,1,.23.81ZM25.08,45.1a1,1,0,0,1-.6-.92V39a1,1,0,0,1,.37-.77,1,1,0,0,1,.84-.2l9.9,2.12a1,1,0,0,1,.78,1l-.82,13.17A4.06,4.06,0,0,0,36.34,57L37.5,58.5a2.49,2.49,0,0,0,4,0L42.63,57a4,4,0,0,0,.78-2.63l-.82-13.18a1,1,0,0,1,.78-1L53.27,38a1,1,0,0,1,.84.2,1,1,0,0,1,.37.77v5.23a1,1,0,0,1-.59.92l-7.81,3.47a1,1,0,0,0-.6.91v15h-12v-15a1,1,0,0,0-.59-.91Z"/><rect class="cls-2" x="0.5" y="0.5" width="77.96" height="77.96"/></g></g></svg>