<svg xmlns="http://www.w3.org/2000/svg" xmlns:xlink="http://www.w3.org/1999/xlink" viewBox="0 0 78.96 78.96"><defs><style>.cls-1{fill:none;stroke-miterlimit:10;stroke:url(#Áåçûìÿííûé_ãðàäèåíò_200);}.cls-2{fill:#373737;}</style><linearGradient id="Áåçûìÿííûé_ãðàäèåíò_200" y1="39.48" x2="78.96" y2="39.48" gradientUnits="userSpaceOnUse"><stop offset="0" stop-color="#ffbf17"/><stop offset="0.22" stop-color="#f6ae1a"/><stop offset="0.66" stop-color="#df8122"/><stop offset="1" stop-color="#ca5a29"/></linearGradient></defs><g id="Layer_2" data-name="Layer 2"><g id="backrgound"><rect class="cls-1" x="0.5" y="0.5" width="77.96" height="77.96"/><path class="cls-2" d="M10.66,66.25a5.08,5.08,0,0,0,5-4l7-5.94,1.14,1.35a5.87,5.87,0,0,0,4.46,2A5.57,5.57,0,0,0,31,59a1.79,1.79,0,0,0,.48-2.68l-1-1.19,31.89-27a3.08,3.08,0,0,0,1.07-2L65.5,8.54a2,2,0,0,0-1-2,2,2,0,0,0-2.3.23L22.29,40.49A1,1,0,1,0,23.58,42L63.51,8.3,62.09,20.35,26.48,50.48l-7.73-9.12a1.79,1.79,0,0,0-2.69,0,5.67,5.67,0,0,0-1.25,3.05,5.87,5.87,0,0,0,1.4,4.26l1.15,1.36-7,5.94a5.12,5.12,0,0,0,.32,10.23Zm51.09-43-.32,2.68a1.05,1.05,0,0,1-.37.69l-31.9,27L27.78,52ZM17.44,42.9,28.28,55.69h0l1.45,1.71a3.84,3.84,0,0,1-4.41-1l-7.6-9a3.93,3.93,0,0,1-.93-2.78A3.76,3.76,0,0,1,17.44,42.9Zm3.93,11.91L15.58,59.7a5.1,5.1,0,0,0-1-1.89,5,5,0,0,0-1.71-1.31l5.79-4.9ZM8.62,58.73A3.18,3.18,0,0,1,13,59.1a3.22,3.22,0,0,1-.36,4.42,3.14,3.14,0,0,1-4.06-4.79Z"/></g></g></svg>